<svg width="40" height="40" viewBox="0 0 40 40" fill="none" xmlns="http://www.w3.org/2000/svg">
<circle cx="20" cy="20" r="20" fill="#F3F3F3"/>
<g clip-path="url(#clip0_319_2274)">
<path d="M20 30.0011C20.663 30.0011 21.2989 29.7377 21.7678 29.2689C22.2366 28.8 22.5 28.1641 22.5 27.5011H17.5C17.5 28.1641 17.7634 28.8 18.2322 29.2689C18.7011 29.7377 19.337 30.0011 20 30.0011ZM20 12.3986L19.0037 12.5998C17.8737 12.8301 16.8579 13.4437 16.1283 14.3369C15.3987 15.23 15.0001 16.3478 15 17.5011C15 18.2861 14.8325 20.2473 14.4262 22.1786C14.2262 23.1373 13.9562 24.1361 13.5975 25.0011H26.4025C26.0437 24.1361 25.775 23.1386 25.5737 22.1786C25.1675 20.2473 25 18.2861 25 17.5011C24.9996 16.348 24.6009 15.2305 23.8713 14.3376C23.1417 13.4447 22.1261 12.8313 20.9963 12.6011L20 12.3973V12.3986ZM27.775 25.0011C28.0538 25.5598 28.3762 26.0023 28.75 26.2511H11.25C11.6238 26.0023 11.9462 25.5598 12.225 25.0011C13.35 22.7511 13.75 18.6011 13.75 17.5011C13.75 14.4761 15.9 11.9511 18.7563 11.3748C18.7388 11.201 18.758 11.0255 18.8125 10.8596C18.8671 10.6936 18.9558 10.541 19.073 10.4114C19.1902 10.2819 19.3333 10.1783 19.4929 10.1075C19.6526 10.0366 19.8253 10 20 10C20.1747 10 20.3474 10.0366 20.5071 10.1075C20.6667 10.1783 20.8098 10.2819 20.927 10.4114C21.0442 10.541 21.1329 10.6936 21.1875 10.8596C21.242 11.0255 21.2612 11.201 21.2437 11.3748C22.6566 11.6622 23.9267 12.429 24.839 13.5455C25.7514 14.6619 26.2498 16.0593 26.25 17.5011C26.25 18.6011 26.65 22.7511 27.775 25.0011Z" fill="#21272A"/>
</g>
<defs>
<clipPath id="clip0_319_2274">
<rect width="20" height="20" fill="white" transform="translate(10 10)"/>
</clipPath>
</defs>
</svg>
