<svg width="24" height="24" viewBox="0 0 24 24" fill="none" xmlns="http://www.w3.org/2000/svg">
<path fill-rule="evenodd" clip-rule="evenodd" d="M4.5 4.5C3.67157 4.5 3 5.17157 3 6V19.5C3 20.3284 3.67157 21 4.5 21H19.5C20.3284 21 21 20.3284 21 19.5V6C21 5.17157 20.3284 4.5 19.5 4.5H4.5ZM1.5 6C1.5 4.34315 2.84315 3 4.5 3H19.5C21.1569 3 22.5 4.34315 22.5 6V19.5C22.5 21.1569 21.1569 22.5 19.5 22.5H4.5C2.84315 22.5 1.5 21.1569 1.5 19.5V6Z" fill="#21272A"/>
<path fill-rule="evenodd" clip-rule="evenodd" d="M6 1.5C6.41421 1.5 6.75 1.83579 6.75 2.25V3.75C6.75 4.16421 6.41421 4.5 6 4.5C5.58579 4.5 5.25 4.16421 5.25 3.75V2.25C5.25 1.83579 5.58579 1.5 6 1.5Z" fill="#21272A"/>
<path fill-rule="evenodd" clip-rule="evenodd" d="M18 1.5C18.4142 1.5 18.75 1.83579 18.75 2.25V3.75C18.75 4.16421 18.4142 4.5 18 4.5C17.5858 4.5 17.25 4.16421 17.25 3.75V2.25C17.25 1.83579 17.5858 1.5 18 1.5Z" fill="#21272A"/>
<path fill-rule="evenodd" clip-rule="evenodd" d="M1.5 7.5C1.5 7.08579 1.83579 6.75 2.25 6.75H21.75C22.1642 6.75 22.5 7.08579 22.5 7.5C22.5 7.91421 22.1642 8.25 21.75 8.25H2.25C1.83579 8.25 1.5 7.91421 1.5 7.5Z" fill="#21272A"/>
<path fill-rule="evenodd" clip-rule="evenodd" d="M15.8404 10.0837C15.9693 9.98875 16.1252 9.9375 16.2854 9.9375H16.5C16.9143 9.9375 17.25 10.2733 17.25 10.6875V18.5625C17.25 18.9767 16.9143 19.3125 16.5 19.3125C16.0858 19.3125 15.75 18.9767 15.75 18.5625V12.0137L14.695 12.7912C14.3616 13.037 13.892 12.9659 13.6463 12.6325C13.4006 12.299 13.4717 11.8295 13.8051 11.5838L15.8404 10.0837Z" fill="#21272A"/>
<path fill-rule="evenodd" clip-rule="evenodd" d="M6.57237 11.0055C6.89211 10.465 7.68994 9.75 8.99211 9.75C9.71107 9.75 10.4427 9.94447 11.0137 10.3794C11.6042 10.8291 11.9857 11.5122 11.987 12.3661C11.9902 12.7017 11.9265 13.0347 11.7996 13.3455C11.6728 13.656 11.4854 13.9383 11.2484 14.1756C10.5632 14.8746 9.57142 15.1233 8.99398 15.1233C8.57977 15.1233 8.24398 14.7875 8.24398 14.3733C8.24398 13.9591 8.57977 13.6233 8.99398 13.6233C9.10727 13.6233 9.32139 13.5931 9.56245 13.504C9.80046 13.4159 10.0195 13.2871 10.1787 13.1241C10.181 13.1218 10.1832 13.1195 10.1855 13.1172C10.2825 13.0204 10.3591 12.9053 10.4109 12.7785C10.4627 12.6516 10.4886 12.5158 10.487 12.3788C10.487 12.376 10.487 12.3731 10.487 12.3703C10.487 12.0018 10.3393 11.7512 10.1048 11.5727C9.8499 11.3785 9.45909 11.25 8.99211 11.25C8.28803 11.25 7.94961 11.6235 7.86341 11.7692C7.65252 12.1257 7.19256 12.2437 6.83605 12.0329C6.47954 11.822 6.36149 11.362 6.57237 11.0055Z" fill="#21272A"/>
<path fill-rule="evenodd" clip-rule="evenodd" d="M8.24402 14.373C8.24402 13.9588 8.57981 13.623 8.99402 13.623C9.62768 13.623 10.7251 13.8985 11.4775 14.6677C12.0219 15.2227 12.2345 15.966 12.2345 16.6957C12.2345 17.5835 11.8499 18.312 11.2304 18.8013C10.6281 19.2771 9.84275 19.4998 9.04137 19.4998C7.5216 19.4998 6.62629 18.4073 6.33857 17.9197C6.12806 17.5629 6.24661 17.1031 6.60334 16.8926C6.96008 16.6821 7.41992 16.8006 7.63042 17.1574C7.8002 17.4451 8.2952 17.9998 9.04137 17.9998C9.58014 17.9998 10.0164 17.8488 10.3006 17.6243C10.5676 17.4133 10.7345 17.1148 10.7345 16.6957C10.7345 16.2425 10.6041 15.9192 10.4064 15.7178L10.4054 15.7168C9.99916 15.3013 9.32588 15.123 8.99402 15.123C8.57981 15.123 8.24402 14.7873 8.24402 14.373Z" fill="#21272A"/>
</svg>
