<svg width="60" height="60" viewBox="0 0 60 60" fill="none" xmlns="http://www.w3.org/2000/svg">
<g clip-path="url(#clip0_315_1469)">
<path d="M26.2502 30.0002C27.9913 30 29.715 30.3462 31.321 31.0186C32.927 31.6911 34.3832 32.6763 35.6047 33.917C36.8262 35.1577 37.7886 36.6291 38.4359 38.2453C39.0833 39.8616 39.4026 41.5905 39.3752 43.3314C39.3708 43.6197 39.4329 43.905 39.5567 44.1653C39.6805 44.4257 39.8627 44.6539 40.0891 44.8324C40.3154 45.0109 40.5799 45.1348 40.8619 45.1945C41.144 45.2541 41.4359 45.2479 41.7152 45.1764C42.5467 44.9634 43.4159 44.9431 44.2564 45.1171C45.0969 45.2911 45.8866 45.6547 46.5652 46.1803C47.2438 46.7059 47.7934 47.3796 48.1721 48.1499C48.5508 48.9202 48.7485 49.7668 48.7502 50.6252C48.7502 52.117 48.1576 53.5478 47.1027 54.6026C46.0478 55.6575 44.617 56.2502 43.1252 56.2502H11.2502C10.2531 56.2445 9.2671 56.0401 8.34993 55.6489C7.43275 55.2577 6.60279 54.6875 5.9086 53.9717C5.21441 53.2559 4.66993 52.4088 4.30699 51.4801C3.94406 50.5514 3.76997 49.5596 3.79491 48.5628C3.81984 47.5659 4.0433 46.5841 4.4522 45.6747C4.86111 44.7652 5.44726 43.9465 6.17637 43.2663C6.90548 42.5861 7.7629 42.0581 8.69849 41.7132C9.63408 41.3683 10.6291 41.2134 11.6252 41.2577C12.0573 41.2799 12.4838 41.152 12.8323 40.8957C13.1809 40.6394 13.4301 40.2705 13.5377 39.8514C14.2651 37.0326 15.9085 34.5354 18.2096 32.7522C20.5107 30.969 23.339 30.0009 26.2502 30.0002ZM43.024 41.2502C42.602 37.4482 40.9009 33.9024 38.1994 31.194C35.4979 28.4857 31.9564 26.7756 28.1555 26.3441C24.3546 25.9125 20.5199 26.7852 17.28 28.819C14.0402 30.8528 11.5874 33.927 10.324 37.5377C7.42873 37.7746 4.7374 39.1223 2.81332 41.2987C0.88924 43.475 -0.118423 46.3112 0.00126052 49.2137C0.120944 52.1161 1.35869 54.8598 3.45542 56.8703C5.55215 58.8808 8.3453 60.0024 11.2502 60.0002H43.1252C45.6116 60.0002 47.9962 59.0124 49.7543 57.2543C51.5125 55.4961 52.5002 53.1116 52.5002 50.6252C52.5002 48.1388 51.5125 45.7542 49.7543 43.996C47.9962 42.2379 45.6116 41.2502 43.1252 41.2502H43.024Z" fill="#21272A"/>
<path d="M39.3751 5.625C39.3751 5.12772 39.1775 4.65081 38.8259 4.29917C38.4743 3.94754 37.9974 3.75 37.5001 3.75C37.0028 3.75 36.5259 3.94754 36.1743 4.29917C35.8226 4.65081 35.6251 5.12772 35.6251 5.625V9.375C35.6251 9.87228 35.8226 10.3492 36.1743 10.7008C36.5259 11.0525 37.0028 11.25 37.5001 11.25C37.9974 11.25 38.4743 11.0525 38.8259 10.7008C39.1775 10.3492 39.3751 9.87228 39.3751 9.375V5.625ZM53.4113 12.99C53.5904 12.817 53.7333 12.6101 53.8315 12.3814C53.9298 12.1526 53.9815 11.9066 53.9837 11.6576C53.9858 11.4087 53.9384 11.1618 53.8441 10.9313C53.7498 10.7009 53.6106 10.4916 53.4346 10.3155C53.2585 10.1395 53.0492 10.0002 52.8187 9.90596C52.5883 9.81168 52.3414 9.76424 52.0925 9.76641C51.8435 9.76857 51.5975 9.82029 51.3687 9.91856C51.1399 10.0168 50.933 10.1597 50.7601 10.3387L48.1051 12.99C47.753 13.3421 47.5552 13.8196 47.5552 14.3175C47.5552 14.8154 47.753 15.2929 48.1051 15.645C48.4572 15.9971 48.9347 16.1949 49.4326 16.1949C49.9305 16.1949 50.408 15.9971 50.7601 15.645L53.4113 12.99ZM24.2401 10.3387C23.8865 9.9972 23.4128 9.80821 22.9212 9.81249C22.4296 9.81676 21.9593 10.0139 21.6117 10.3616C21.264 10.7092 21.0668 11.1795 21.0626 11.6711C21.0583 12.1627 21.2473 12.6364 21.5888 12.99L24.2401 15.645C24.4144 15.8193 24.6214 15.9576 24.8491 16.052C25.0769 16.1463 25.321 16.1949 25.5676 16.1949C25.8141 16.1949 26.0582 16.1463 26.286 16.052C26.5138 15.9576 26.7208 15.8193 26.8951 15.645C27.0694 15.4707 27.2077 15.2637 27.302 15.0359C27.3964 14.8082 27.445 14.564 27.445 14.3175C27.445 14.071 27.3964 13.8268 27.302 13.5991C27.2077 13.3713 27.0694 13.1643 26.8951 12.99L24.2401 10.3387ZM30.7426 22.9912C31.2087 22.0254 31.8764 21.1707 32.7009 20.4849C33.5254 19.7991 34.4873 19.298 35.5219 19.0156C36.5564 18.7331 37.6395 18.6758 38.6981 18.8475C39.7567 19.0192 40.7662 19.4159 41.6584 20.0109C42.5506 20.6059 43.3049 21.3854 43.8703 22.2966C44.4357 23.2079 44.7991 24.2298 44.9359 25.2935C45.0728 26.3572 44.98 27.4378 44.6637 28.4625C44.3475 29.4873 43.8151 30.4322 43.1026 31.2337C43.8488 32.2875 44.4976 33.4162 45.0376 34.6012C46.3084 33.453 47.3003 32.0297 47.9376 30.44C48.575 28.8502 48.8409 27.1359 48.7151 25.4277C48.5893 23.7196 48.0752 22.0627 47.2119 20.5834C46.3486 19.1042 45.159 17.8415 43.7336 16.8918C42.3083 15.9421 40.6849 15.3303 38.9873 15.1032C37.2896 14.8761 35.5626 15.0396 33.9377 15.5812C32.3129 16.1229 30.8331 17.0284 29.6113 18.2287C28.3895 19.429 27.4579 20.8925 26.8876 22.5075C28.2076 22.5487 29.4976 22.7137 30.7426 22.9912ZM47.5576 38.2687C49.8076 39.075 51.7763 40.4813 53.2651 42.2887C53.4692 42.1234 53.6364 41.917 53.7556 41.683C53.8749 41.4489 53.9437 41.1924 53.9575 40.93C53.9713 40.6677 53.9298 40.4054 53.8357 40.1601C53.7416 39.9148 53.597 39.6921 53.4113 39.5062L50.7601 36.855C50.4928 36.5861 50.1502 36.4046 49.7777 36.3343C49.4051 36.2641 49.02 36.3085 48.6731 36.4616C48.3263 36.6147 48.034 36.8694 47.8348 37.192C47.6357 37.5146 47.539 37.8901 47.5576 38.2687ZM54.3751 24.375C53.8778 24.375 53.4009 24.5725 53.0493 24.9242C52.6976 25.2758 52.5001 25.7527 52.5001 26.25C52.5001 26.7473 52.6976 27.2242 53.0493 27.5758C53.4009 27.9275 53.8778 28.125 54.3751 28.125H58.1251C58.6224 28.125 59.0993 27.9275 59.4509 27.5758C59.8025 27.2242 60.0001 26.7473 60.0001 26.25C60.0001 25.7527 59.8025 25.2758 59.4509 24.9242C59.0993 24.5725 58.6224 24.375 58.1251 24.375H54.3751Z" fill="#21272A"/>
</g>
<defs>
<clipPath id="clip0_315_1469">
<rect width="60" height="60" fill="white"/>
</clipPath>
</defs>
</svg>
