<svg width="30" height="31" viewBox="0 0 30 31" fill="none" xmlns="http://www.w3.org/2000/svg">
<path fill-rule="evenodd" clip-rule="evenodd" d="M23.5607 24.338C22.9749 24.9238 22.0251 24.9238 21.4393 24.338L13.9393 16.838C13.3536 16.2522 13.3536 15.3025 13.9393 14.7167L21.4393 7.21668C22.0251 6.6309 22.9749 6.6309 23.5607 7.21669C24.1464 7.80247 24.1464 8.75222 23.5607 9.338L17.1213 15.7773L23.5607 22.2167C24.1464 22.8025 24.1464 23.7522 23.5607 24.338ZM14.5607 24.338C13.9749 24.9238 13.0251 24.9238 12.4393 24.338L4.93934 16.838C4.35355 16.2522 4.35355 15.3025 4.93934 14.7167L12.4393 7.21668C13.0251 6.6309 13.9749 6.6309 14.5607 7.21668C15.1464 7.80247 15.1464 8.75222 14.5607 9.338L8.12132 15.7773L14.5607 22.2167C15.1464 22.8025 15.1464 23.7522 14.5607 24.338Z" fill="#21272A"/>
</svg>
