<svg width="40" height="40" viewBox="0 0 40 40" fill="none" xmlns="http://www.w3.org/2000/svg">
<path d="M18 12C18 15.3137 15.3137 18 12 18C8.68629 18 6 15.3137 6 12C6 8.68629 8.68629 6 12 6C15.3137 6 18 8.68629 18 12Z" fill="#21272A"/>
<path d="M34 12C34 15.3137 31.3137 18 28 18C24.6863 18 22 15.3137 22 12C22 8.68629 24.6863 6 28 6C31.3137 6 34 8.68629 34 12Z" fill="#21272A"/>
<path d="M25.8583 34C25.9517 33.3468 26 32.679 26 32C26 28.7296 24.8787 25.7212 22.9995 23.3381C24.4705 22.4871 26.1784 22 28 22C33.5229 22 38 26.4772 38 32V34H25.8583Z" fill="#21272A"/>
<path d="M12 22C17.5228 22 22 26.4772 22 32V34H2V32C2 26.4772 6.47715 22 12 22Z" fill="#21272A"/>
</svg>
