<svg width="40" height="40" viewBox="0 0 40 40" fill="none" xmlns="http://www.w3.org/2000/svg">
<g clip-path="url(#clip0_302_1020)">
<path d="M30.3651 0.365281C30.4812 0.248873 30.6192 0.156516 30.771 0.0935C30.9229 0.0304839 31.0857 -0.00195313 31.2501 -0.00195312C31.4145 -0.00195312 31.5773 0.0304839 31.7292 0.0935C31.8811 0.156516 32.019 0.248873 32.1351 0.365281L39.6351 7.86528C39.7515 7.98139 39.8439 8.11933 39.9069 8.2712C39.9699 8.42306 40.0024 8.58586 40.0024 8.75028C40.0024 8.9147 39.9699 9.0775 39.9069 9.22936C39.8439 9.38123 39.7515 9.51917 39.6351 9.63528L14.6351 34.6353C14.5152 34.7544 14.3723 34.848 14.2151 34.9103L1.71513 39.9103C1.48797 40.0012 1.23911 40.0235 0.999424 39.9743C0.759733 39.9251 0.539743 39.8067 0.366727 39.6337C0.193711 39.4607 0.0752774 39.2407 0.0261087 39.001C-0.0230599 38.7613 -0.000801133 38.5124 0.0901255 38.2853L5.09013 25.7853C5.15245 25.6281 5.246 25.4852 5.36513 25.3653L30.3651 0.365281ZM28.0176 6.25028L33.7501 11.9828L36.9826 8.75028L31.2501 3.01778L28.0176 6.25028ZM31.9826 13.7503L26.2501 8.01778L10.0001 24.2678V25.0003H11.2501C11.5816 25.0003 11.8996 25.132 12.134 25.3664C12.3684 25.6008 12.5001 25.9188 12.5001 26.2503V27.5003H13.7501C14.0816 27.5003 14.3996 27.632 14.634 27.8664C14.8684 28.1008 15.0001 28.4188 15.0001 28.7503V30.0003H15.7326L31.9826 13.7503ZM7.58013 26.6878L7.31513 26.9528L3.49513 36.5053L13.0476 32.6853L13.3126 32.4203C13.0742 32.3312 12.8686 32.1714 12.7234 31.9623C12.5782 31.7533 12.5003 31.5048 12.5001 31.2503V30.0003H11.2501C10.9186 30.0003 10.6007 29.8686 10.3662 29.6342C10.1318 29.3997 10.0001 29.0818 10.0001 28.7503V27.5003H8.75012C8.49557 27.5001 8.24715 27.4222 8.03807 27.277C7.82899 27.1318 7.66922 26.9262 7.58013 26.6878Z" fill="#21272A"/>
</g>
<defs>
<clipPath id="clip0_302_1020">
<rect width="40" height="40" fill="white"/>
</clipPath>
</defs>
</svg>
