<svg width="60" height="60" viewBox="0 0 60 60" fill="none" xmlns="http://www.w3.org/2000/svg">
<g clip-path="url(#clip0_315_1484)">
<path d="M15.5926 45.0932C15.8263 45.1712 16.0424 45.2944 16.2285 45.4559C16.4146 45.6174 16.567 45.814 16.6771 46.0345C16.7871 46.2549 16.8527 46.4949 16.8699 46.7407C16.8871 46.9865 16.8558 47.2333 16.7776 47.467L14.9026 53.092C14.7319 53.5459 14.3919 53.916 13.9541 54.1246C13.5163 54.3332 13.0147 54.3641 12.5546 54.2107C12.0946 54.0574 11.7118 53.7317 11.4867 53.3022C11.2617 52.8726 11.2118 52.3725 11.3476 51.907L13.2226 46.282C13.3793 45.8101 13.717 45.4197 14.1614 45.1968C14.6059 44.9739 15.1207 44.9366 15.5926 45.0932ZM26.8426 45.0932C27.0763 45.1712 27.2924 45.2944 27.4785 45.4559C27.6646 45.6174 27.817 45.814 27.9271 46.0345C28.0371 46.2549 28.1027 46.4949 28.1199 46.7407C28.1371 46.9865 28.1058 47.2333 28.0276 47.467L24.2776 58.717C24.1069 59.1709 23.7669 59.541 23.3291 59.7496C22.8913 59.9582 22.3897 59.9891 21.9296 59.8357C21.4696 59.6824 21.0868 59.3567 20.8617 58.9272C20.6367 58.4976 20.5868 57.9975 20.7226 57.532L24.4726 46.282C24.6293 45.8101 24.967 45.4197 25.4114 45.1968C25.8559 44.9739 26.3707 44.9366 26.8426 45.0932ZM38.0926 45.0932C38.3263 45.1712 38.5424 45.2944 38.7285 45.4559C38.9146 45.6174 39.067 45.814 39.1771 46.0345C39.2871 46.2549 39.3527 46.4949 39.3699 46.7407C39.3871 46.9865 39.3558 47.2333 39.2776 47.467L37.4026 53.092C37.2319 53.5459 36.8919 53.916 36.4541 54.1246C36.0163 54.3332 35.5147 54.3641 35.0546 54.2107C34.5946 54.0574 34.2118 53.7317 33.9867 53.3022C33.7617 52.8726 33.7118 52.3725 33.8476 51.907L35.7226 46.282C35.8793 45.8101 36.217 45.4197 36.6614 45.1968C37.1059 44.9739 37.6207 44.9366 38.0926 45.0932ZM49.3426 45.0932C49.5763 45.1712 49.7924 45.2944 49.9785 45.4559C50.1646 45.6174 50.317 45.814 50.4271 46.0345C50.5371 46.2549 50.6027 46.4949 50.6199 46.7407C50.6371 46.9865 50.6058 47.2333 50.5276 47.467L46.7776 58.717C46.707 58.9591 46.5882 59.1845 46.4284 59.3797C46.2687 59.5748 46.0712 59.7357 45.8478 59.8528C45.6244 59.9699 45.3796 60.0406 45.1282 60.0609C44.8768 60.0812 44.6239 60.0505 44.3846 59.9707C44.1454 59.891 43.9246 59.7638 43.7357 59.5967C43.5467 59.4297 43.3934 59.2262 43.2849 58.9985C43.1764 58.7708 43.115 58.5236 43.1043 58.2716C43.0936 58.0196 43.1338 57.768 43.2226 57.532L46.9726 46.282C47.1293 45.8101 47.467 45.4197 47.9114 45.1968C48.3559 44.9739 48.8707 44.9366 49.3426 45.0932ZM50.2688 18.8507C49.4901 14.9251 47.4759 11.3515 44.5208 8.65251C41.5657 5.95352 37.8247 4.27066 33.8447 3.85C29.8648 3.42933 25.8546 4.29292 22.4006 6.3145C18.9465 8.33608 16.2298 11.4096 14.6476 15.0857C12.8732 14.8813 11.0758 15.0412 9.36539 15.5556C7.65498 16.07 6.06756 16.9281 4.70031 18.0774C3.33307 19.2266 2.21478 20.6428 1.41391 22.2393C0.613034 23.8358 0.146434 25.5789 0.0426745 27.362C-0.061085 29.1451 0.200179 30.9306 0.810472 32.6092C1.42076 34.2878 2.36724 35.8241 3.59196 37.1242C4.81667 38.4243 6.29385 39.4607 7.93305 40.1701C9.57225 40.8794 11.339 41.2467 13.1251 41.2495H48.7501C51.6042 41.2527 54.3529 40.171 56.4394 38.2235C58.5259 36.2759 59.7941 33.6082 59.9872 30.7605C60.1802 27.9129 59.2838 25.0983 57.4793 22.887C55.6748 20.6756 53.0973 19.2328 50.2688 18.8507ZM31.8751 7.49947C35.5649 7.4987 39.1256 8.85798 41.8762 11.3174C44.6269 13.7768 46.3746 17.1638 46.7851 20.8307C46.8361 21.2914 47.0559 21.7169 47.4022 22.0251C47.7484 22.3333 48.1965 22.5023 48.6601 22.4995H48.7501C50.7392 22.4995 52.6469 23.2896 54.0534 24.6962C55.4599 26.1027 56.2501 28.0103 56.2501 29.9995C56.2501 31.9886 55.4599 33.8962 54.0534 35.3028C52.6469 36.7093 50.7392 37.4995 48.7501 37.4995H13.1251C11.7979 37.4988 10.4859 37.2163 9.27599 36.6708C8.06609 36.1252 6.98581 35.3289 6.10663 34.3347C5.22745 33.3404 4.5694 32.1708 4.17601 30.9032C3.78262 29.6356 3.66286 28.299 3.82466 26.9816C3.98645 25.6643 4.4261 24.3964 5.11453 23.2616C5.80297 22.1269 6.72449 21.1513 7.81814 20.3993C8.91179 19.6474 10.1526 19.1362 11.4586 18.8996C12.7646 18.663 14.1059 18.7064 15.3938 19.027C15.8533 19.1416 16.3391 19.0781 16.7537 18.8492C17.1683 18.6204 17.4809 18.2431 17.6288 17.7932C18.6199 14.7976 20.5299 12.1906 23.0874 10.3426C25.6449 8.49469 28.7198 7.49984 31.8751 7.49947Z" fill="#21272A"/>
</g>
<defs>
<clipPath id="clip0_315_1484">
<rect width="60" height="60" fill="white"/>
</clipPath>
</defs>
</svg>
