<svg width="60" height="60" viewBox="0 0 60 60" fill="none" xmlns="http://www.w3.org/2000/svg">
<g clip-path="url(#clip0_315_1485)">
<path d="M50.2688 15.1007C49.4901 11.1751 47.4759 7.6015 44.5208 4.90251C41.5657 2.20352 37.8247 0.520663 33.8447 0.0999984C29.8648 -0.320666 25.8546 0.542924 22.4006 2.5645C18.9465 4.58608 16.2298 7.65961 14.6476 11.3357C12.8732 11.1313 11.0758 11.2912 9.36539 11.8056C7.65498 12.32 6.06756 13.1781 4.70031 14.3274C3.33307 15.4766 2.21478 16.8928 1.41391 18.4893C0.613034 20.0858 0.146434 21.8289 0.0426745 23.612C-0.061085 25.3951 0.200179 27.1806 0.810472 28.8592C1.42076 30.5378 2.36724 32.0741 3.59196 33.3742C4.81667 34.6743 6.29385 35.7107 7.93305 36.4201C9.57225 37.1294 11.339 37.4967 13.1251 37.4995H48.7501C51.6042 37.5027 54.3529 36.421 56.4394 34.4735C58.5259 32.5259 59.7941 29.8582 59.9872 27.0105C60.1802 24.1629 59.2838 21.3483 57.4793 19.137C55.6748 16.9256 53.0973 15.4828 50.2688 15.1007ZM31.8751 3.74947C35.5649 3.7487 39.1256 5.10798 41.8762 7.56739C44.6269 10.0268 46.3746 13.4138 46.7851 17.0807C46.8361 17.5414 47.0559 17.9669 47.4022 18.2751C47.7484 18.5833 48.1965 18.7523 48.6601 18.7495H48.7501C50.7392 18.7495 52.6469 19.5396 54.0534 20.9462C55.4599 22.3527 56.2501 24.2603 56.2501 26.2495C56.2501 28.2386 55.4599 30.1462 54.0534 31.5528C52.6469 32.9593 50.7392 33.7495 48.7501 33.7495H13.1251C11.7979 33.7488 10.4859 33.4663 9.27599 32.9208C8.06609 32.3752 6.98581 31.5789 6.10663 30.5847C5.22745 29.5904 4.5694 28.4208 4.17601 27.1532C3.78262 25.8856 3.66286 24.549 3.82466 23.2316C3.98645 21.9143 4.4261 20.6464 5.11453 19.5116C5.80297 18.3769 6.72449 17.4013 7.81814 16.6493C8.91179 15.8974 10.1526 15.3862 11.4586 15.1496C12.7646 14.913 14.1059 14.9564 15.3938 15.277C15.8533 15.3916 16.3391 15.3281 16.7537 15.0992C17.1683 14.8704 17.4809 14.4931 17.6288 14.0432C18.6199 11.0476 20.5299 8.44059 23.0874 6.59264C25.6449 4.74469 28.7198 3.74984 31.8751 3.74947ZM8.90633 50.6245C9.15497 50.6245 9.39342 50.7232 9.56924 50.8991C9.74505 51.0749 9.84383 51.3133 9.84383 51.562V53.6995L11.7226 52.6232C11.9379 52.5068 12.1903 52.4793 12.4257 52.5465C12.6611 52.6137 12.8608 52.7703 12.9823 52.9828C13.1037 53.1954 13.1372 53.447 13.0756 53.6839C13.014 53.9208 12.8622 54.1243 12.6526 54.2507L10.7963 55.312L12.6526 56.3732C12.8622 56.4997 13.014 56.7031 13.0756 56.94C13.1372 57.1769 13.1037 57.4285 12.9823 57.6411C12.8608 57.8536 12.6611 58.0102 12.4257 58.0774C12.1903 58.1446 11.9379 58.1171 11.7226 58.0007L9.84383 56.9282V59.062C9.84383 59.3106 9.74505 59.5491 9.56924 59.7249C9.39342 59.9007 9.15497 59.9995 8.90633 59.9995C8.65769 59.9995 8.41923 59.9007 8.24341 59.7249C8.0676 59.5491 7.96883 59.3106 7.96883 59.062V56.9245L6.09008 58.0007C5.87472 58.1171 5.62238 58.1446 5.38698 58.0774C5.15159 58.0102 4.95182 57.8536 4.83036 57.6411C4.70891 57.4285 4.67541 57.1769 4.73702 56.94C4.79863 56.7031 4.95047 56.4997 5.16008 56.3732L7.01633 55.312L5.16008 54.2507C4.95047 54.1243 4.79863 53.9208 4.73702 53.6839C4.67541 53.447 4.70891 53.1954 4.83036 52.9828C4.95182 52.7703 5.15159 52.6137 5.38698 52.5465C5.62238 52.4793 5.87472 52.5068 6.09008 52.6232L7.96883 53.6957V51.562C7.96883 51.3133 8.0676 51.0749 8.24341 50.8991C8.41923 50.7232 8.65769 50.6245 8.90633 50.6245ZM15.8401 41.4482C16.2837 41.671 16.6208 42.0606 16.7775 42.5316C16.9343 43.0026 16.8979 43.5165 16.6763 43.9607L14.8013 47.7107C14.696 47.9387 14.546 48.1432 14.3602 48.312C14.1743 48.4809 13.9565 48.6107 13.7195 48.6938C13.4825 48.7769 13.2313 48.8115 12.9807 48.7957C12.7301 48.7798 12.4852 48.7138 12.2606 48.6015C12.036 48.4892 11.8363 48.3329 11.6732 48.1419C11.5102 47.951 11.3871 47.7292 11.3114 47.4898C11.2357 47.2504 11.2089 46.9982 11.2325 46.7482C11.2561 46.4982 11.3296 46.2555 11.4488 46.0345L13.3238 42.2845C13.5466 41.8409 13.9362 41.5038 14.4072 41.347C14.8782 41.1902 15.3921 41.2266 15.8363 41.4482H15.8401ZM23.9063 50.6245C24.155 50.6245 24.3934 50.7232 24.5692 50.8991C24.7451 51.0749 24.8438 51.3133 24.8438 51.562V53.6995L26.7226 52.6232C26.9379 52.5068 27.1903 52.4793 27.4257 52.5465C27.6611 52.6137 27.8608 52.7703 27.9823 52.9828C28.1037 53.1954 28.1372 53.447 28.0756 53.6839C28.014 53.9208 27.8622 54.1243 27.6526 54.2507L25.7963 55.312L27.6526 56.3732C27.8622 56.4997 28.014 56.7031 28.0756 56.94C28.1372 57.1769 28.1037 57.4285 27.9823 57.6411C27.8608 57.8536 27.6611 58.0102 27.4257 58.0774C27.1903 58.1446 26.9379 58.1171 26.7226 58.0007L24.8438 56.9282V59.062C24.8438 59.3106 24.7451 59.5491 24.5692 59.7249C24.3934 59.9007 24.155 59.9995 23.9063 59.9995C23.6577 59.9995 23.4192 59.9007 23.2434 59.7249C23.0676 59.5491 22.9688 59.3106 22.9688 59.062V56.9245L21.0901 58.0007C20.8747 58.1171 20.6224 58.1446 20.387 58.0774C20.1516 58.0102 19.9518 57.8536 19.8304 57.6411C19.7089 57.4285 19.6754 57.1769 19.737 56.94C19.7986 56.7031 19.9505 56.4997 20.1601 56.3732L22.0163 55.312L20.1601 54.2507C19.9505 54.1243 19.7986 53.9208 19.737 53.6839C19.6754 53.447 19.7089 53.1954 19.8304 52.9828C19.9518 52.7703 20.1516 52.6137 20.387 52.5465C20.6224 52.4793 20.8747 52.5068 21.0901 52.6232L22.9688 53.6957V51.562C22.9688 51.3133 23.0676 51.0749 23.2434 50.8991C23.4192 50.7232 23.6577 50.6245 23.9063 50.6245ZM30.8401 41.4482C31.2837 41.671 31.6208 42.0606 31.7775 42.5316C31.9343 43.0026 31.8979 43.5165 31.6763 43.9607L29.8013 47.7107C29.696 47.9387 29.546 48.1432 29.3602 48.312C29.1743 48.4809 28.9565 48.6107 28.7195 48.6938C28.4825 48.7769 28.2313 48.8115 27.9807 48.7957C27.7301 48.7798 27.4852 48.7138 27.2606 48.6015C27.036 48.4892 26.8363 48.3329 26.6732 48.1419C26.5102 47.951 26.3871 47.7292 26.3114 47.4898C26.2357 47.2504 26.2089 46.9982 26.2325 46.7482C26.2561 46.4982 26.3296 46.2555 26.4488 46.0345L28.3238 42.2845C28.5466 41.8409 28.9362 41.5038 29.4072 41.347C29.8782 41.1902 30.3921 41.2266 30.8363 41.4482H30.8401ZM38.9063 50.6245C39.155 50.6245 39.3934 50.7232 39.5692 50.8991C39.7451 51.0749 39.8438 51.3133 39.8438 51.562V53.6995L41.7226 52.6232C41.9379 52.5068 42.1903 52.4793 42.4257 52.5465C42.6611 52.6137 42.8608 52.7703 42.9823 52.9828C43.1037 53.1954 43.1372 53.447 43.0756 53.6839C43.014 53.9208 42.8622 54.1243 42.6526 54.2507L40.7963 55.312L42.6526 56.3732C42.8622 56.4997 43.014 56.7031 43.0756 56.94C43.1372 57.1769 43.1037 57.4285 42.9823 57.6411C42.8608 57.8536 42.6611 58.0102 42.4257 58.0774C42.1903 58.1446 41.9379 58.1171 41.7226 58.0007L39.8438 56.9282V59.062C39.8438 59.3106 39.7451 59.5491 39.5692 59.7249C39.3934 59.9007 39.155 59.9995 38.9063 59.9995C38.6577 59.9995 38.4192 59.9007 38.2434 59.7249C38.0676 59.5491 37.9688 59.3106 37.9688 59.062V56.9245L36.0901 58.0007C35.8747 58.1171 35.6224 58.1446 35.387 58.0774C35.1516 58.0102 34.9518 57.8536 34.8304 57.6411C34.7089 57.4285 34.6754 57.1769 34.737 56.94C34.7986 56.7031 34.9505 56.4997 35.1601 56.3732L37.0163 55.312L35.1601 54.2507C34.9505 54.1243 34.7986 53.9208 34.737 53.6839C34.6754 53.447 34.7089 53.1954 34.8304 52.9828C34.9518 52.7703 35.1516 52.6137 35.387 52.5465C35.6224 52.4793 35.8747 52.5068 36.0901 52.6232L37.9688 53.6957V51.562C37.9688 51.3133 38.0676 51.0749 38.2434 50.8991C38.4192 50.7232 38.6577 50.6245 38.9063 50.6245ZM45.8401 41.4482C46.2837 41.671 46.6208 42.0606 46.7775 42.5316C46.9343 43.0026 46.8979 43.5165 46.6763 43.9607L44.8013 47.7107C44.696 47.9387 44.546 48.1432 44.3602 48.312C44.1743 48.4809 43.9565 48.6107 43.7195 48.6938C43.4825 48.7769 43.2313 48.8115 42.9807 48.7957C42.7301 48.7798 42.4852 48.7138 42.2606 48.6015C42.036 48.4892 41.8363 48.3329 41.6732 48.1419C41.5102 47.951 41.3871 47.7292 41.3114 47.4898C41.2357 47.2504 41.2089 46.9982 41.2325 46.7482C41.2561 46.4982 41.3296 46.2555 41.4488 46.0345L43.3238 42.2845C43.5466 41.8409 43.9362 41.5038 44.4072 41.347C44.8782 41.1902 45.3921 41.2266 45.8363 41.4482H45.8401Z" fill="#21272A"/>
</g>
<defs>
<clipPath id="clip0_315_1485">
<rect width="60" height="60" fill="white"/>
</clipPath>
</defs>
</svg>
