<svg width="60" height="60" viewBox="0 0 60 60" fill="none" xmlns="http://www.w3.org/2000/svg">
<path fill-rule="evenodd" clip-rule="evenodd" d="M30 3.75C31.0355 3.75 31.875 4.58947 31.875 5.625V11.25C31.875 12.2855 31.0355 13.125 30 13.125C28.9645 13.125 28.125 12.2855 28.125 11.25V5.625C28.125 4.58947 28.9645 3.75 30 3.75Z" fill="#21272A"/>
<path fill-rule="evenodd" clip-rule="evenodd" d="M30 46.875C31.0355 46.875 31.875 47.7145 31.875 48.75V54.375C31.875 55.4105 31.0355 56.25 30 56.25C28.9645 56.25 28.125 55.4105 28.125 54.375V48.75C28.125 47.7145 28.9645 46.875 30 46.875Z" fill="#21272A"/>
<path fill-rule="evenodd" clip-rule="evenodd" d="M48.562 11.4378C49.2942 12.1701 49.2942 13.3573 48.562 14.0895L44.5846 18.0668C43.8524 18.7991 42.6652 18.7991 41.933 18.0668C41.2007 17.3346 41.2007 16.1474 41.933 15.4152L45.9103 11.4378C46.6425 10.7056 47.8297 10.7056 48.562 11.4378Z" fill="#21272A"/>
<path fill-rule="evenodd" clip-rule="evenodd" d="M18.0673 41.932C18.7996 42.6642 18.7996 43.8514 18.0673 44.5836L14.09 48.561C13.3578 49.2932 12.1706 49.2932 11.4383 48.561C10.7061 47.8287 10.7061 46.6416 11.4383 45.9093L15.4157 41.932C16.1479 41.1998 17.3351 41.1998 18.0673 41.932Z" fill="#21272A"/>
<path fill-rule="evenodd" clip-rule="evenodd" d="M46.875 30C46.875 28.9645 47.7145 28.125 48.75 28.125H54.375C55.4105 28.125 56.25 28.9645 56.25 30C56.25 31.0355 55.4105 31.875 54.375 31.875H48.75C47.7145 31.875 46.875 31.0355 46.875 30Z" fill="#21272A"/>
<path fill-rule="evenodd" clip-rule="evenodd" d="M3.75 30C3.75 28.9645 4.58947 28.125 5.625 28.125H11.25C12.2855 28.125 13.125 28.9645 13.125 30C13.125 31.0355 12.2855 31.875 11.25 31.875H5.625C4.58947 31.875 3.75 31.0355 3.75 30Z" fill="#21272A"/>
<path fill-rule="evenodd" clip-rule="evenodd" d="M41.933 41.932C42.6652 41.1998 43.8524 41.1998 44.5846 41.932L48.562 45.9093C49.2942 46.6416 49.2942 47.8287 48.562 48.561C47.8297 49.2932 46.6425 49.2932 45.9103 48.561L41.933 44.5836C41.2007 43.8514 41.2007 42.6642 41.933 41.932Z" fill="#21272A"/>
<path fill-rule="evenodd" clip-rule="evenodd" d="M11.4383 11.4378C12.1706 10.7056 13.3578 10.7056 14.09 11.4378L18.0673 15.4152C18.7996 16.1474 18.7996 17.3346 18.0673 18.0668C17.3351 18.7991 16.1479 18.7991 15.4157 18.0668L11.4383 14.0895C10.7061 13.3573 10.7061 12.1701 11.4383 11.4378Z" fill="#21272A"/>
<path fill-rule="evenodd" clip-rule="evenodd" d="M30 22.5C25.8579 22.5 22.5 25.8579 22.5 30C22.5 34.1421 25.8579 37.5 30 37.5C34.1421 37.5 37.5 34.1421 37.5 30C37.5 25.8579 34.1421 22.5 30 22.5ZM18.75 30C18.75 23.7868 23.7868 18.75 30 18.75C36.2132 18.75 41.25 23.7868 41.25 30C41.25 36.2132 36.2132 41.25 30 41.25C23.7868 41.25 18.75 36.2132 18.75 30Z" fill="#21272A"/>
</svg>
